<svg xmlns="http://www.w3.org/2000/svg" xmlns:xlink="http://www.w3.org/1999/xlink" width="208" height="48" fill="none" xmlns:v="https://vecta.io/nano"><path d="M82.83 12.452v17.356c0 1.083-.179 2.063-.538 2.939-.336.876-.829 1.625-1.48 2.247-.628.622-1.401 1.106-2.32 1.452s-1.95.519-3.094.519c-2.175 0-3.867-.576-5.078-1.729-1.211-1.175-1.984-2.731-2.32-4.668l4.103-.864c.202 1.037.561 1.844 1.076 2.42.538.553 1.267.83 2.186.83.874 0 1.592-.277 2.152-.83.583-.576.874-1.452.874-2.628v-13.31h-7.398v-3.734H82.83zM94.9 37c-1.255 0-2.388-.219-3.396-.657a7.21 7.21 0 0 1-2.556-1.902c-.695-.83-1.233-1.821-1.614-2.973-.381-1.175-.572-2.489-.572-3.942s.191-2.754.572-3.907.919-2.132 1.614-2.939a7.21 7.21 0 0 1 2.556-1.902c1.009-.438 2.141-.657 3.396-.657s2.388.219 3.397.657 1.861 1.072 2.556 1.902c.718.807 1.267 1.786 1.648 2.939s.572 2.455.572 3.907-.191 2.766-.572 3.942c-.381 1.153-.93 2.144-1.648 2.973-.695.83-1.547 1.464-2.556 1.902S96.155 37 94.9 37zm0-3.561c1.143 0 2.04-.357 2.69-1.072s.975-1.763.975-3.146v-3.354c0-1.36-.325-2.397-.975-3.112s-1.547-1.072-2.69-1.072c-1.121 0-2.006.357-2.657 1.072s-.975 1.752-.975 3.112v3.354c0 1.383.325 2.432.975 3.146s1.536 1.072 2.657 1.072zM106.888 11h4.304v10.511h.135a4.44 4.44 0 0 1 1.782-2.455c.874-.622 1.894-.934 3.06-.934 2.242 0 3.946.818 5.111 2.455 1.189 1.613 1.783 3.93 1.783 6.949 0 3.043-.594 5.382-1.783 7.019-1.165 1.636-2.869 2.455-5.111 2.455-1.166 0-2.186-.311-3.06-.934-.852-.622-1.446-1.452-1.782-2.489h-.135v3.008h-4.304V11zm7.902 22.335c1.121 0 2.029-.38 2.724-1.141s1.043-1.786 1.043-3.077v-3.112c0-1.291-.348-2.316-1.043-3.077-.695-.784-1.603-1.175-2.724-1.175-1.031 0-1.894.265-2.589.795-.673.53-1.009 1.233-1.009 2.109v5.739c0 .945.336 1.671 1.009 2.178.695.507 1.558.761 2.589.761zM132.802 37c-1.682 0-3.094-.288-4.237-.864-1.144-.599-2.153-1.417-3.027-2.455l2.623-2.628c.65.761 1.356 1.36 2.119 1.798.784.438 1.681.657 2.69.657 1.031 0 1.771-.184 2.219-.553.471-.369.707-.876.707-1.521 0-.53-.169-.945-.505-1.245-.314-.323-.863-.542-1.648-.657l-1.748-.242c-1.906-.254-3.363-.807-4.372-1.66-.986-.876-1.48-2.144-1.48-3.803 0-.876.157-1.66.471-2.351a4.82 4.82 0 0 1 1.345-1.798c.583-.507 1.278-.887 2.085-1.141.83-.277 1.749-.415 2.758-.415.852 0 1.603.069 2.253.207a7.03 7.03 0 0 1 1.816.553c.538.23 1.031.53 1.479.899a12.45 12.45 0 0 1 1.312 1.175l-2.522 2.593c-.516-.553-1.132-1.014-1.85-1.383a5.07 5.07 0 0 0-2.354-.553c-.941 0-1.625.173-2.051.519-.404.346-.605.795-.605 1.348 0 .599.168 1.06.504 1.383.359.3.953.519 1.782.657l1.783.242c3.788.553 5.683 2.328 5.683 5.325 0 .876-.179 1.683-.538 2.42a5.47 5.47 0 0 1-1.446 1.867c-.628.507-1.39.91-2.287 1.21-.874.277-1.861.415-2.959.415zm20.413 0c-1.547 0-2.948-.254-4.204-.761-1.233-.53-2.298-1.314-3.194-2.351-.875-1.037-1.547-2.317-2.018-3.838-.471-1.544-.706-3.331-.706-5.359s.235-3.826.706-5.394c.471-1.59 1.143-2.916 2.018-3.976.896-1.083 1.961-1.902 3.194-2.455 1.256-.553 2.657-.83 4.204-.83 2.107 0 3.856.461 5.246 1.383s2.5 2.317 3.329 4.184l-3.8 2.075c-.336-1.083-.885-1.948-1.648-2.593-.762-.668-1.804-1.003-3.127-1.003-1.659 0-2.982.576-3.968 1.729-.964 1.152-1.446 2.766-1.446 4.84v3.803c0 2.098.482 3.711 1.446 4.84.986 1.106 2.309 1.66 3.968 1.66 1.323 0 2.399-.369 3.228-1.106a6.32 6.32 0 0 0 1.85-2.731l3.598 2.178c-.852 1.798-1.984 3.204-3.396 4.218-1.413.991-3.173 1.487-5.28 1.487zm25.107-.415c-.942 0-1.693-.277-2.253-.83-.538-.576-.875-1.337-1.009-2.282h-.202c-.291 1.175-.885 2.063-1.782 2.662-.897.576-2.007.864-3.329.864-1.794 0-3.173-.484-4.137-1.452s-1.446-2.259-1.446-3.872c0-1.867.65-3.25 1.951-4.149 1.3-.922 3.15-1.383 5.548-1.383h2.993V24.83c0-1.014-.257-1.798-.773-2.351s-1.345-.83-2.489-.83c-1.008 0-1.827.23-2.454.691a6.42 6.42 0 0 0-1.547 1.591l-2.556-2.351c.65-1.037 1.513-1.867 2.589-2.489 1.076-.645 2.5-.968 4.271-.968 2.376 0 4.181.553 5.414 1.66s1.85 2.697 1.85 4.771v8.505h1.748v3.527h-2.387zm-7.129-2.8c.964 0 1.782-.219 2.454-.657s1.009-1.083 1.009-1.936v-2.386h-2.757c-2.242 0-3.363.737-3.363 2.213v.588c0 .738.224 1.291.673 1.66.47.346 1.132.519 1.984.519zm17.304 2.8c-1.479 0-2.566-.38-3.261-1.141s-1.043-1.832-1.043-3.215V11h4.304v22.059h2.321v3.527h-2.321zm12.508.415c-1.3 0-2.455-.219-3.463-.657s-1.861-1.072-2.556-1.902c-.673-.83-1.188-1.821-1.547-2.973-.359-1.175-.538-2.489-.538-3.942s.179-2.754.538-3.907.874-2.132 1.547-2.939c.695-.83 1.547-1.464 2.556-1.902s2.163-.657 3.463-.657c1.771 0 3.229.403 4.372 1.21 1.166.807 2.006 1.925 2.522 3.354l-3.531 1.625c-.202-.761-.583-1.383-1.143-1.867-.538-.507-1.278-.761-2.22-.761-1.21 0-2.118.392-2.724 1.176-.582.784-.874 1.809-.874 3.077v3.285c0 1.268.292 2.293.874 3.077.606.761 1.514 1.141 2.724 1.141 1.032 0 1.827-.265 2.388-.795.56-.553.998-1.233 1.311-2.04L208 32.229c-.583 1.59-1.468 2.789-2.657 3.596-1.188.784-2.634 1.175-4.338 1.175z" fill="#fcfdff"/><g clip-path="url(#A)"><g fill="#6d6d80"><path d="M41.344 0H4.219C1.893 0 0 1.893 0 4.219v37.125c0 2.326 1.893 4.219 4.219 4.219h27.75c.373 0 .731-.148.994-.412l12.188-12.187c.264-.264.412-.621.412-.994V4.219C45.563 1.893 43.67 0 41.344 0z"/><path d="M22.781 0H4.219C1.893 0 0 1.893 0 4.219v18.562h22.781V0z"/></g><path d="M45.563 22.781V4.219C45.563 1.893 43.67 0 41.344 0H22.781v22.781h22.781z" fill="#575766"/><path d="M22.781 22.781v22.781h9.188c.373 0 .731-.148.994-.412l12.188-12.187c.264-.264.412-.621.412-.994v-9.188H22.781zm21.375 9.188h.001-.001z" fill="#414141"/><path d="M0 22.781v18.563c0 2.326 1.893 4.219 4.219 4.219h18.562V22.781H0z" fill="#575766"/><g fill="#fcfdff"><path d="M14.672 9.984h-1.875V8.109c0-.777-.63-1.406-1.406-1.406s-1.406.63-1.406 1.406v1.875H8.109c-.777 0-1.406.63-1.406 1.406s.63 1.406 1.406 1.406h1.875v1.875c0 .777.63 1.406 1.406 1.406s1.406-.63 1.406-1.406v-1.875h1.875c.777 0 1.406-.63 1.406-1.406s-.63-1.406-1.406-1.406z"/><use xlink:href="#B"/><path d="M13.379 34.172l1.349-1.349c.549-.549.549-1.44 0-1.989s-1.44-.549-1.989 0l-1.349 1.349-1.349-1.349c-.549-.549-1.44-.549-1.989 0s-.549 1.44 0 1.989l1.349 1.349-1.349 1.349c-.549.549-.549 1.44 0 1.989a1.4 1.4 0 0 0 1.989 0l1.349-1.349 1.349 1.349a1.4 1.4 0 0 0 1.989 0c.549-.549.549-1.439 0-1.989l-1.349-1.349z"/></g><path d="M33.469 48c-8.013 0-14.531-6.519-14.531-14.531s6.519-14.531 14.531-14.531S48 25.456 48 33.469 41.481 48 33.469 48z" fill="#f1972c"/><g fill="#fcfdff"><path d="M36.75 37.688h-6.562c-.777 0-1.406-.63-1.406-1.406s.63-1.406 1.406-1.406h6.563c.777 0 1.406.63 1.406 1.406s-.63 1.406-1.406 1.406zm0-5.625h-6.562c-.777 0-1.406-.63-1.406-1.406s.63-1.406 1.406-1.406h6.563c.777 0 1.406.63 1.406 1.406s-.63 1.406-1.406 1.406z"/></g></g><defs><clipPath id="A"><path fill="#fff" d="M0 0h48v48H0z"/></clipPath><path id="B" d="M37.453 12.797h-6.562c-.777 0-1.406-.63-1.406-1.406s.63-1.406 1.406-1.406h6.563c.777 0 1.406.63 1.406 1.406s-.63 1.406-1.406 1.406z"/></defs></svg>